<svg width="305" height="153" viewBox="0 0 305 153" fill="none" xmlns="http://www.w3.org/2000/svg">
<path d="M170.694 32.5333L170.656 32.5491L170.618 32.5659C168.677 33.4277 166.632 33.8598 164.455 33.8598C162.277 33.8598 160.321 33.4278 158.545 32.5928L158.451 32.5488L158.355 32.5114C156.409 31.7558 154.861 30.7079 153.645 29.3917L153.604 29.3477L153.562 29.3053C152.187 27.9327 151.116 26.2854 150.353 24.3254L150.315 24.2289L150.271 24.1352C149.426 22.3411 149.003 20.4502 149.003 18.4299C149.003 16.2563 149.435 14.3039 150.271 12.5306L150.302 12.4637L150.331 12.3953C151.086 10.5632 152.159 8.95596 153.562 7.55454L153.604 7.51216L153.645 7.46811C154.883 6.12779 156.465 5.00228 158.447 4.117C160.246 3.38331 162.237 3 164.455 3C166.65 3 168.709 3.37595 170.653 4.11746C172.49 4.99326 174.1 6.12409 175.5 7.51208C176.784 8.91192 177.811 10.5323 178.579 12.3953L178.607 12.4637L178.639 12.5306C179.474 14.3039 179.907 16.2563 179.907 18.4299C179.907 20.4502 179.484 22.3411 178.639 24.1352L178.595 24.2289L178.557 24.3254C177.783 26.314 176.758 27.9751 175.5 29.3477C174.107 30.7284 172.511 31.7862 170.694 32.5333ZM136.011 8.63016V28.238L3 28.4237V8.81579L136.011 8.63016Z" stroke="#C0F000" stroke-width="6"/>
<path d="M220.428 112.799C220.428 118.061 221.081 122.45 222.79 125.494C224.695 128.885 227.881 130.547 231.779 130.547C233.697 130.547 235.555 130.387 237.35 130.062C238.406 129.884 239.537 129.601 240.74 129.223L243.003 145.74C241.001 146.517 238.29 147.337 234.807 148.183C230.211 149.299 225.468 149.859 220.571 149.859C212.649 149.859 207.095 148.049 203.441 144.889C199.953 141.731 197.86 136.287 197.86 127.767V10.6251H220.428V112.799ZM278.432 112.799C278.432 118.061 279.084 122.45 280.794 125.494C282.698 128.885 285.885 130.547 289.782 130.547C291.7 130.547 293.559 130.387 295.353 130.062C296.409 129.884 297.541 129.601 298.743 129.223L301.007 145.74C299.005 146.517 296.293 147.337 292.81 148.183C288.215 149.299 283.471 149.859 278.575 149.859C270.653 149.859 265.098 148.049 261.444 144.889C257.956 141.731 255.863 136.287 255.863 127.767V10.6251H278.432V112.799Z" stroke="white" stroke-width="6"/>
<path d="M82.0297 90.9287V147.391H60.3979V94.5188C60.3979 84.5605 59.2885 76.8365 56.6921 71.8228C53.7273 66.0974 47.8117 63.6952 40.3245 63.6952C38.1564 63.6952 35.9885 63.7725 33.8209 63.9272L33.8127 63.9277L33.8045 63.9284C31.7941 64.0828 29.6413 64.3136 27.3482 64.619L24.7442 64.9657V67.5927V147.391H3.11233V50.6122C7.50213 49.5102 12.726 48.4519 18.7966 47.4412C25.9528 46.2745 33.7255 45.686 42.1217 45.686C50.2483 45.686 56.7748 46.8492 61.8246 49.0303L61.8562 49.0439L61.8881 49.0569C66.9704 51.1148 70.8372 54.0786 73.6149 57.91L73.6495 57.9576L73.6859 58.0039C76.6656 61.7919 78.8167 66.4531 80.0812 72.0665L80.083 72.0745L80.0849 72.0826C81.3727 77.6564 82.0297 83.9322 82.0297 90.9287ZM156.098 127.728V47.9299H177.955V144.472C173.399 145.605 168.007 146.744 161.768 147.889L161.757 147.891C154.777 149.198 147.102 149.859 138.721 149.859C130.278 149.859 123.608 148.691 118.569 146.515C113.469 144.312 109.495 141.264 106.549 137.402C103.685 133.301 101.673 128.477 100.552 122.875C99.3985 117.116 98.8129 110.735 98.8129 103.719V47.9299H120.445V100.128C120.445 109.983 121.567 117.775 124.099 123.168L124.123 123.22L124.149 123.271C127.216 129.206 133.041 131.85 140.518 131.85C144.891 131.85 149.261 131.46 153.625 130.681L156.098 130.24V127.728Z" stroke="white" stroke-width="6"/>
</svg>
