<svg width="390" height="193" viewBox="0 0 390 193" fill="none" xmlns="http://www.w3.org/2000/svg">
<path d="M0 40.207L177.843 39.9588V7.19754L0 7.44573V40.207ZM210.394 47.1563C213.707 47.1563 216.855 46.4945 219.836 45.1708C222.653 44.0126 225.137 42.358 227.291 40.207C229.279 38.056 230.853 35.4913 232.012 32.513C233.337 29.7002 234 26.7219 234 23.5782C234 20.2689 233.337 17.2079 232.012 14.3951C230.853 11.5823 229.279 9.10034 227.291 6.94935C225.137 4.79836 222.653 3.06102 219.836 1.73734C216.855 0.579112 213.707 -1.4465e-07 210.394 0C207.081 1.4465e-07 204.016 0.579113 201.2 1.73734C198.218 3.06102 195.733 4.79836 193.746 6.94935C191.592 9.10034 189.936 11.5823 188.776 14.3951C187.451 17.2079 186.788 20.2689 186.788 23.5782C186.788 26.7219 187.451 29.7002 188.776 32.513C189.936 35.4913 191.592 38.056 193.746 40.207C195.733 42.358 198.218 44.0126 201.2 45.1708C204.016 46.4945 207.081 47.1563 210.394 47.1563Z" fill="#222BFF"/>
<path d="M0.143702 59.228C6.46657 57.5056 14.2265 55.8789 23.4234 54.3479C32.8119 52.8169 42.9668 52.0514 53.8881 52.0514C64.6178 52.0514 73.5273 53.5824 80.6166 56.6444C87.7059 59.515 93.2623 63.7253 97.286 69.2752C101.501 74.6338 104.471 81.1405 106.195 88.7956C107.92 96.2593 108.782 104.584 108.782 113.77V189.842H73.4315V118.363C73.4315 105.732 71.9945 96.642 69.1205 91.0921C66.2464 85.5422 60.4026 82.7672 51.5889 82.7672C48.9065 82.7672 46.224 82.8629 43.5416 83.0543C41.0508 83.2457 38.3683 83.5328 35.4943 83.9155V189.842H0.143702V59.228Z" fill="#222BFF"/>
<path d="M231.503 185.249C224.989 186.972 217.037 188.694 207.649 190.416C198.452 192.139 188.393 193 177.471 193C166.359 193 157.257 191.469 150.168 188.407C143.079 185.345 137.427 181.039 133.211 175.489C129.188 169.748 126.41 163.05 124.877 155.395C123.344 147.74 122.577 139.319 122.577 130.133V54.922H157.928V125.54C157.928 137.979 159.365 147.261 162.239 153.385C165.305 159.318 171.149 162.284 179.771 162.284C185.136 162.284 190.5 161.806 195.865 160.849V54.922H231.503V185.249Z" fill="#222BFF"/>
<path d="M285.841 141.75C285.841 148.321 286.685 153.108 288.371 156.111C290.058 159.115 292.776 160.617 296.525 160.617C298.774 160.617 300.929 160.429 302.991 160.054C305.24 159.678 307.958 158.834 311.144 157.519L315.08 186.242C312.081 187.744 307.489 189.245 301.304 190.747C295.119 192.249 288.746 193 282.186 193C271.503 193 263.35 190.56 257.727 185.679C252.104 180.61 249.293 172.35 249.293 160.899V7.19639H285.841V141.75Z" fill="#222BFF"/>
<path d="M360.047 141.75C360.047 148.321 360.891 153.108 362.578 156.111C364.265 159.115 366.982 160.617 370.731 160.617C372.98 160.617 375.135 160.429 377.197 160.054C379.446 159.678 382.164 158.834 385.35 157.519L389.286 186.242C386.287 187.744 381.695 189.245 375.51 190.747C369.325 192.249 362.953 193 356.393 193C345.709 193 337.556 190.56 331.933 185.679C326.31 180.61 323.499 172.35 323.499 160.899V7.19639H360.047V141.75Z" fill="#222BFF"/>
</svg>
