<svg width="787" height="189" viewBox="0 0 787 189" fill="none" xmlns="http://www.w3.org/2000/svg">
<path d="M359.382 185.98C351.542 185.98 345.205 185 340.37 183.04V175.886C343.114 176.931 346.021 177.748 349.092 178.336C352.228 178.859 355.429 179.12 358.696 179.12C364.315 179.12 368.529 178.369 371.338 176.866C374.147 175.298 375.552 172.521 375.552 168.536C375.552 166.053 374.964 164.093 373.788 162.656C372.677 161.153 370.815 159.912 368.202 158.932C365.589 157.887 362.093 156.841 357.716 155.796C350.791 154.097 345.923 151.909 343.114 149.23C340.305 146.486 338.9 142.827 338.9 138.254C338.9 132.897 340.827 128.683 344.682 125.612C348.537 122.476 354.417 120.908 362.322 120.908C365.981 120.908 369.378 121.169 372.514 121.692C375.65 122.215 378.067 122.77 379.766 123.358V130.414C377.414 129.565 374.866 128.911 372.122 128.454C369.378 127.997 366.536 127.768 363.596 127.768C358.239 127.768 354.123 128.552 351.248 130.12C348.373 131.688 346.936 134.399 346.936 138.254C346.936 140.41 347.426 142.174 348.406 143.546C349.451 144.853 351.183 145.996 353.6 146.976C356.017 147.891 359.382 148.871 363.694 149.916C368.855 151.157 372.873 152.66 375.748 154.424C378.623 156.123 380.648 158.148 381.824 160.5C383 162.852 383.588 165.531 383.588 168.536C383.588 174.089 381.563 178.401 377.512 181.472C373.461 184.477 367.418 185.98 359.382 185.98ZM395.315 185V121.888H403.351V185H395.315ZM435.562 185.98C427.722 185.98 421.384 185 416.55 183.04V175.886C419.294 176.931 422.201 177.748 425.272 178.336C428.408 178.859 431.609 179.12 434.876 179.12C440.494 179.12 444.708 178.369 447.518 176.866C450.327 175.298 451.732 172.521 451.732 168.536C451.732 166.053 451.144 164.093 449.968 162.656C448.857 161.153 446.995 159.912 444.382 158.932C441.768 157.887 438.273 156.841 433.896 155.796C426.97 154.097 422.103 151.909 419.294 149.23C416.484 146.486 415.08 142.827 415.08 138.254C415.08 132.897 417.007 128.683 420.862 125.612C424.716 122.476 430.596 120.908 438.502 120.908C442.16 120.908 445.558 121.169 448.694 121.692C451.83 122.215 454.247 122.77 455.946 123.358V130.414C453.594 129.565 451.046 128.911 448.302 128.454C445.558 127.997 442.716 127.768 439.776 127.768C434.418 127.768 430.302 128.552 427.428 130.12C424.553 131.688 423.116 134.399 423.116 138.254C423.116 140.41 423.606 142.174 424.586 143.546C425.631 144.853 427.362 145.996 429.78 146.976C432.197 147.891 435.562 148.871 439.874 149.916C445.035 151.157 449.053 152.66 451.928 154.424C454.802 156.123 456.828 158.148 458.004 160.5C459.18 162.852 459.768 165.531 459.768 168.536C459.768 174.089 457.742 178.401 453.692 181.472C449.641 184.477 443.598 185.98 435.562 185.98ZM484.623 185V128.258H463.651V121.888H513.631V128.258H492.659V185H484.623ZM523.462 185V121.888H566.092V128.258H531.498V150.308H562.564V156.58H531.498V178.728H566.092V185H523.462ZM577.821 185V121.888H586.445L607.809 165.694L629.173 121.888H637.797V185H629.859V134.432L610.553 174.024H605.163L585.759 134.432V185H577.821ZM649.552 185L673.562 121.888H682.97L706.882 185H698.65L691.986 167.654H664.546L657.882 185H649.552ZM665.918 161.284H690.516L678.168 128.846L665.918 161.284ZM731.763 185.98C723.923 185.98 717.586 185 712.751 183.04V175.886C715.495 176.931 718.402 177.748 721.473 178.336C724.609 178.859 727.81 179.12 731.077 179.12C736.696 179.12 740.91 178.369 743.719 176.866C746.528 175.298 747.933 172.521 747.933 168.536C747.933 166.053 747.345 164.093 746.169 162.656C745.058 161.153 743.196 159.912 740.583 158.932C737.97 157.887 734.474 156.841 730.097 155.796C723.172 154.097 718.304 151.909 715.495 149.23C712.686 146.486 711.281 142.827 711.281 138.254C711.281 132.897 713.208 128.683 717.063 125.612C720.918 122.476 726.798 120.908 734.703 120.908C738.362 120.908 741.759 121.169 744.895 121.692C748.031 122.215 750.448 122.77 752.147 123.358V130.414C749.795 129.565 747.247 128.911 744.503 128.454C741.759 127.997 738.917 127.768 735.977 127.768C730.62 127.768 726.504 128.552 723.629 130.12C720.754 131.688 719.317 134.399 719.317 138.254C719.317 140.41 719.807 142.174 720.787 143.546C721.832 144.853 723.564 145.996 725.981 146.976C728.398 147.891 731.763 148.871 736.075 149.916C741.236 151.157 745.254 152.66 748.129 154.424C751.004 156.123 753.029 158.148 754.205 160.5C755.381 162.852 755.969 165.531 755.969 168.536C755.969 174.089 753.944 178.401 749.893 181.472C745.842 184.477 739.799 185.98 731.763 185.98Z" fill="white"/>
<path d="M337.944 106L351 44.176H366.36L382.776 76.912L389.688 44.176H407.736L394.68 106H379.224L362.904 73.36L355.992 106H337.944ZM432.661 106.96C424.726 106.96 418.422 105.232 413.75 101.776C409.078 98.256 406.742 92.688 406.742 85.072C406.742 82.192 407.126 78.928 407.894 75.28C409.558 67.6 412.022 61.424 415.286 56.752C418.55 52.016 422.742 48.592 427.862 46.48C433.046 44.304 439.19 43.216 446.294 43.216C454.486 43.216 460.854 45.008 465.398 48.592C469.942 52.112 472.214 57.648 472.214 65.2C472.214 68.144 471.83 71.504 471.062 75.28C468.694 86.416 464.374 94.48 458.102 99.472C451.894 104.464 443.414 106.96 432.661 106.96ZM435.926 91.6C440.534 91.6 444.15 90.32 446.774 87.76C449.462 85.136 451.414 80.976 452.63 75.28C452.95 73.744 453.174 72.336 453.302 71.056C453.494 69.712 453.59 68.528 453.59 67.504C453.59 64.304 452.758 62.032 451.094 60.688C449.494 59.28 446.806 58.576 443.03 58.576C438.422 58.576 434.806 59.856 432.182 62.416C429.622 64.912 427.67 69.2 426.326 75.28C426.006 76.816 425.75 78.224 425.558 79.504C425.366 80.784 425.27 81.968 425.27 83.056C425.27 86.128 426.102 88.336 427.766 89.68C429.494 90.96 432.214 91.6 435.926 91.6ZM483.949 106L494.221 57.616H476.845L479.629 44.176H532.429L529.645 57.616H512.269L501.997 106H483.949Z" fill="white"/>
<path d="M527.944 106L541 44.176H556.36L572.776 76.912L579.688 44.176H597.736L584.68 106H569.224L552.904 73.36L545.992 106H527.944ZM621.894 106.96C616.646 106.96 612.198 106.096 608.549 104.368C604.902 102.576 602.118 100.176 600.198 97.168C598.342 94.096 597.414 90.64 597.414 86.8C597.414 85.136 597.606 83.408 597.99 81.616L605.958 44.176H624.006L616.326 80.272C615.942 82.064 615.75 83.632 615.75 84.976C615.75 87.344 616.486 89.04 617.958 90.064C619.43 91.088 621.83 91.6 625.158 91.6C629.254 91.6 632.326 90.736 634.374 89.008C636.422 87.28 637.862 84.368 638.694 80.272L646.374 44.176H664.422L656.358 82.192C654.566 90.896 650.854 97.2 645.222 101.104C639.59 105.008 631.814 106.96 621.894 106.96ZM659.569 106L672.625 44.176H690.673L680.497 92.176H708.337L705.457 106H659.569ZM710.381 106L723.438 44.176H741.486L731.31 92.176H759.15L756.27 106H710.381Z" fill="white"/>
<path d="M170.694 68.6745L170.656 68.6903L170.618 68.7071C168.677 69.5689 166.632 70.001 164.455 70.001C162.277 70.001 160.321 69.569 158.545 68.734L158.451 68.69L158.355 68.6526C156.409 67.897 154.861 66.8491 153.645 65.5329L153.604 65.4889L153.562 65.4465C152.187 64.0739 151.116 62.4266 150.353 60.4666L150.315 60.3701L150.271 60.2765C149.426 58.4823 149.003 56.5914 149.003 54.5711C149.003 52.3976 149.435 50.4451 150.271 48.6718L150.302 48.6049L150.331 48.5366C151.086 46.7044 152.159 45.0972 153.562 43.6958L153.604 43.6534L153.645 43.6093C154.883 42.269 156.465 41.1435 158.447 40.2582C160.246 39.5245 162.237 39.1412 164.455 39.1412C166.65 39.1412 168.709 39.5172 170.653 40.2587C172.49 41.1345 174.1 42.2653 175.5 43.6533C176.784 45.0531 177.811 46.6736 178.579 48.5366L178.607 48.6049L178.639 48.6718C179.474 50.4451 179.907 52.3976 179.907 54.5711C179.907 56.5914 179.484 58.4823 178.639 60.2765L178.595 60.3701L178.557 60.4666C177.783 62.4552 176.758 64.1163 175.5 65.489C174.107 66.8696 172.511 67.9274 170.694 68.6745ZM136.011 44.7714V64.3792L3 64.5649V44.957L136.011 44.7714Z" stroke="#C0F000" stroke-width="6"/>
<path d="M220.428 148.941C220.428 154.202 221.081 158.591 222.79 161.635C224.695 165.026 227.881 166.688 231.779 166.688C233.697 166.688 235.555 166.528 237.35 166.203C238.406 166.025 239.537 165.742 240.74 165.364L243.003 181.881C241.001 182.658 238.29 183.478 234.807 184.324C230.211 185.44 225.468 186 220.571 186C212.649 186 207.095 184.191 203.441 181.03C199.953 177.872 197.86 172.428 197.86 163.908V46.7663H220.428V148.941ZM278.432 148.941C278.432 154.202 279.084 158.591 280.794 161.635C282.698 165.026 285.885 166.688 289.782 166.688C291.7 166.688 293.559 166.528 295.353 166.203C296.409 166.025 297.541 165.742 298.743 165.364L301.007 181.881C299.005 182.658 296.293 183.478 292.81 184.324C288.215 185.44 283.471 186 278.575 186C270.653 186 265.098 184.191 261.444 181.03C257.956 177.872 255.863 172.428 255.863 163.908V46.7663H278.432V148.941Z" stroke="white" stroke-width="6"/>
<path d="M82.0297 127.07V183.532H60.3979V130.66C60.3979 120.702 59.2885 112.978 56.6921 107.964C53.7273 102.239 47.8118 99.8364 40.3245 99.8364C38.1564 99.8364 35.9885 99.9137 33.8209 100.068L33.8127 100.069L33.8046 100.07C31.7941 100.224 29.6414 100.455 27.3482 100.76L24.7442 101.107V103.734V183.532H3.11234V86.7534C7.50214 85.6514 12.726 84.5931 18.7966 83.5824C25.9528 82.4157 33.7255 81.8273 42.1217 81.8273C50.2483 81.8273 56.7748 82.9904 61.8246 85.1715L61.8562 85.1851L61.8881 85.1981C66.9704 87.256 70.8372 90.2199 73.6149 94.0512L73.6495 94.0989L73.6859 94.1451C76.6656 97.9331 78.8167 102.594 80.0812 108.208L80.083 108.216L80.0849 108.224C81.3727 113.798 82.0297 120.073 82.0297 127.07ZM156.098 163.869V84.0711H177.955V180.613C173.399 181.746 168.007 182.885 161.768 184.03L161.757 184.032C154.777 185.339 147.102 186 138.721 186C130.278 186 123.608 184.832 118.569 182.656C113.469 180.453 109.495 177.406 106.549 173.543C103.685 169.443 101.673 164.618 100.552 159.017C99.3985 153.257 98.8129 146.876 98.8129 139.86V84.0711H120.445V136.27C120.445 146.124 121.567 153.916 124.099 159.309L124.123 159.361L124.149 159.412C127.216 165.347 133.041 167.991 140.518 167.991C144.891 167.991 149.261 167.601 153.625 166.822L156.098 166.381V163.869Z" stroke="white" stroke-width="6"/>
</svg>
