<svg width="787" height="189" viewBox="0 0 787 189" fill="none" xmlns="http://www.w3.org/2000/svg">
<path d="M359.382 185.98C351.542 185.98 345.205 185 340.37 183.04V175.886C343.114 176.931 346.021 177.748 349.092 178.336C352.228 178.859 355.429 179.12 358.696 179.12C364.315 179.12 368.529 178.369 371.338 176.866C374.147 175.298 375.552 172.521 375.552 168.536C375.552 166.053 374.964 164.093 373.788 162.656C372.677 161.153 370.815 159.912 368.202 158.932C365.589 157.887 362.093 156.841 357.716 155.796C350.791 154.097 345.923 151.909 343.114 149.23C340.305 146.486 338.9 142.827 338.9 138.254C338.9 132.897 340.827 128.683 344.682 125.612C348.537 122.476 354.417 120.908 362.322 120.908C365.981 120.908 369.378 121.169 372.514 121.692C375.65 122.215 378.067 122.77 379.766 123.358V130.414C377.414 129.565 374.866 128.911 372.122 128.454C369.378 127.997 366.536 127.768 363.596 127.768C358.239 127.768 354.123 128.552 351.248 130.12C348.373 131.688 346.936 134.399 346.936 138.254C346.936 140.41 347.426 142.174 348.406 143.546C349.451 144.853 351.183 145.996 353.6 146.976C356.017 147.891 359.382 148.871 363.694 149.916C368.855 151.157 372.873 152.66 375.748 154.424C378.623 156.123 380.648 158.148 381.824 160.5C383 162.852 383.588 165.531 383.588 168.536C383.588 174.089 381.563 178.401 377.512 181.472C373.461 184.477 367.418 185.98 359.382 185.98ZM395.315 185V121.888H403.351V185H395.315ZM435.562 185.98C427.722 185.98 421.384 185 416.55 183.04V175.886C419.294 176.931 422.201 177.748 425.272 178.336C428.408 178.859 431.609 179.12 434.876 179.12C440.494 179.12 444.708 178.369 447.518 176.866C450.327 175.298 451.732 172.521 451.732 168.536C451.732 166.053 451.144 164.093 449.968 162.656C448.857 161.153 446.995 159.912 444.382 158.932C441.768 157.887 438.273 156.841 433.896 155.796C426.97 154.097 422.103 151.909 419.294 149.23C416.484 146.486 415.08 142.827 415.08 138.254C415.08 132.897 417.007 128.683 420.862 125.612C424.716 122.476 430.596 120.908 438.502 120.908C442.16 120.908 445.558 121.169 448.694 121.692C451.83 122.215 454.247 122.77 455.946 123.358V130.414C453.594 129.565 451.046 128.911 448.302 128.454C445.558 127.997 442.716 127.768 439.776 127.768C434.418 127.768 430.302 128.552 427.428 130.12C424.553 131.688 423.116 134.399 423.116 138.254C423.116 140.41 423.606 142.174 424.586 143.546C425.631 144.853 427.362 145.996 429.78 146.976C432.197 147.891 435.562 148.871 439.874 149.916C445.035 151.157 449.053 152.66 451.928 154.424C454.802 156.123 456.828 158.148 458.004 160.5C459.18 162.852 459.768 165.531 459.768 168.536C459.768 174.089 457.742 178.401 453.692 181.472C449.641 184.477 443.598 185.98 435.562 185.98ZM484.623 185V128.258H463.651V121.888H513.631V128.258H492.659V185H484.623ZM523.462 185V121.888H566.092V128.258H531.498V150.308H562.564V156.58H531.498V178.728H566.092V185H523.462ZM577.821 185V121.888H586.445L607.809 165.694L629.173 121.888H637.797V185H629.859V134.432L610.553 174.024H605.163L585.759 134.432V185H577.821ZM649.552 185L673.562 121.888H682.97L706.882 185H698.65L691.986 167.654H664.546L657.882 185H649.552ZM665.918 161.284H690.516L678.168 128.846L665.918 161.284ZM731.763 185.98C723.923 185.98 717.586 185 712.751 183.04V175.886C715.495 176.931 718.402 177.748 721.473 178.336C724.609 178.859 727.81 179.12 731.077 179.12C736.696 179.12 740.91 178.369 743.719 176.866C746.528 175.298 747.933 172.521 747.933 168.536C747.933 166.053 747.345 164.093 746.169 162.656C745.058 161.153 743.196 159.912 740.583 158.932C737.97 157.887 734.474 156.841 730.097 155.796C723.172 154.097 718.304 151.909 715.495 149.23C712.686 146.486 711.281 142.827 711.281 138.254C711.281 132.897 713.208 128.683 717.063 125.612C720.918 122.476 726.798 120.908 734.703 120.908C738.362 120.908 741.759 121.169 744.895 121.692C748.031 122.215 750.448 122.77 752.147 123.358V130.414C749.795 129.565 747.247 128.911 744.503 128.454C741.759 127.997 738.917 127.768 735.977 127.768C730.62 127.768 726.504 128.552 723.629 130.12C720.754 131.688 719.317 134.399 719.317 138.254C719.317 140.41 719.807 142.174 720.787 143.546C721.832 144.853 723.564 145.996 725.981 146.976C728.398 147.891 731.763 148.871 736.075 149.916C741.236 151.157 745.254 152.66 748.129 154.424C751.004 156.123 753.029 158.148 754.205 160.5C755.381 162.852 755.969 165.531 755.969 168.536C755.969 174.089 753.944 178.401 749.893 181.472C745.842 184.477 739.799 185.98 731.763 185.98Z" fill="white"/>
<path d="M337.944 106L351 44.176H366.36L382.776 76.912L389.688 44.176H407.736L394.68 106H379.224L362.904 73.36L355.992 106H337.944ZM432.661 106.96C424.726 106.96 418.422 105.232 413.75 101.776C409.078 98.256 406.742 92.688 406.742 85.072C406.742 82.192 407.126 78.928 407.894 75.28C409.558 67.6 412.022 61.424 415.286 56.752C418.55 52.016 422.742 48.592 427.862 46.48C433.046 44.304 439.19 43.216 446.294 43.216C454.486 43.216 460.854 45.008 465.398 48.592C469.942 52.112 472.214 57.648 472.214 65.2C472.214 68.144 471.83 71.504 471.062 75.28C468.694 86.416 464.374 94.48 458.102 99.472C451.894 104.464 443.414 106.96 432.661 106.96ZM435.926 91.6C440.534 91.6 444.15 90.32 446.774 87.76C449.462 85.136 451.414 80.976 452.63 75.28C452.95 73.744 453.174 72.336 453.302 71.056C453.494 69.712 453.59 68.528 453.59 67.504C453.59 64.304 452.758 62.032 451.094 60.688C449.494 59.28 446.806 58.576 443.03 58.576C438.422 58.576 434.806 59.856 432.182 62.416C429.622 64.912 427.67 69.2 426.326 75.28C426.006 76.816 425.75 78.224 425.558 79.504C425.366 80.784 425.27 81.968 425.27 83.056C425.27 86.128 426.102 88.336 427.766 89.68C429.494 90.96 432.214 91.6 435.926 91.6ZM483.949 106L494.221 57.616H476.845L479.629 44.176H532.429L529.645 57.616H512.269L501.997 106H483.949Z" fill="#FF3C3C"/>
<path d="M527.944 106L541 44.176H556.36L572.776 76.912L579.688 44.176H597.736L584.68 106H569.224L552.904 73.36L545.992 106H527.944ZM621.894 106.96C616.646 106.96 612.198 106.096 608.549 104.368C604.902 102.576 602.118 100.176 600.198 97.168C598.342 94.096 597.414 90.64 597.414 86.8C597.414 85.136 597.606 83.408 597.99 81.616L605.958 44.176H624.006L616.326 80.272C615.942 82.064 615.75 83.632 615.75 84.976C615.75 87.344 616.486 89.04 617.958 90.064C619.43 91.088 621.83 91.6 625.158 91.6C629.254 91.6 632.326 90.736 634.374 89.008C636.422 87.28 637.862 84.368 638.694 80.272L646.374 44.176H664.422L656.358 82.192C654.566 90.896 650.854 97.2 645.222 101.104C639.59 105.008 631.814 106.96 621.894 106.96ZM659.569 106L672.625 44.176H690.673L680.497 92.176H708.337L705.457 106H659.569ZM710.381 106L723.438 44.176H741.486L731.31 92.176H759.15L756.27 106H710.381Z" fill="white"/>
<path d="M0 67.5691L139.011 67.3751V41.7672L0 41.9612V67.5691ZM164.455 73.001C167.045 73.001 169.505 72.4837 171.836 71.449C174.037 70.5437 175.979 69.2504 177.662 67.5691C179.216 65.8877 180.446 63.8831 181.353 61.5551C182.389 59.3564 182.907 57.0284 182.907 54.5711C182.907 51.9845 182.389 49.5918 181.353 47.3932C180.446 45.1945 179.216 43.2545 177.662 41.5732C175.979 39.8919 174.037 38.5339 171.836 37.4992C169.505 36.5939 167.045 36.1412 164.455 36.1412C161.865 36.1412 159.47 36.5939 157.268 37.4992C154.938 38.5339 152.995 39.8919 151.442 41.5732C149.758 43.2545 148.463 45.1945 147.557 47.3932C146.521 49.5918 146.003 51.9845 146.003 54.5711C146.003 57.0284 146.521 59.3564 147.557 61.5551C148.463 63.8831 149.758 65.8877 151.442 67.5691C152.995 69.2504 154.938 70.5437 157.268 71.449C159.47 72.4837 161.865 73.001 164.455 73.001Z" fill="#FF3C3C"/>
<path d="M223.428 148.941C223.428 154.076 224.087 157.818 225.406 160.166C226.725 162.514 228.849 163.688 231.779 163.688C233.537 163.688 235.222 163.541 236.833 163.248C238.591 162.954 240.716 162.294 243.206 161.267L246.283 183.717C243.939 184.891 240.349 186.065 235.515 187.239C230.68 188.413 225.699 189 220.571 189C212.221 189 205.848 187.092 201.453 183.277C197.058 179.315 194.86 172.859 194.86 163.908V43.7663H223.428V148.941Z" fill="white"/>
<path d="M281.432 148.941C281.432 154.076 282.091 157.818 283.41 160.166C284.728 162.514 286.852 163.688 289.782 163.688C291.541 163.688 293.225 163.541 294.837 163.248C296.595 162.954 298.719 162.294 301.21 161.267L304.286 183.717C301.942 184.891 298.353 186.065 293.518 187.239C288.684 188.413 283.703 189 278.575 189C270.224 189 263.851 187.092 259.456 183.277C255.061 179.315 252.863 172.859 252.863 163.908V43.7663H281.432V148.941Z" fill="white"/>
<path d="M0.112335 84.4369C5.05462 83.0906 11.1201 81.819 18.3089 80.6223C25.6475 79.4256 33.5851 78.8273 42.1217 78.8273C50.5086 78.8273 57.4728 80.024 63.0141 82.4174C68.5555 84.6612 72.8987 87.9522 76.0438 92.2903C79.3386 96.4788 81.66 101.565 83.0079 107.548C84.3558 113.382 85.0297 119.89 85.0297 127.07V186.532H57.3979V130.66C57.3979 120.787 56.2746 113.682 54.0282 109.344C51.7817 105.005 47.2138 102.836 40.3245 102.836C38.2278 102.836 36.1311 102.911 34.0344 103.061C32.0874 103.21 29.9907 103.435 27.7442 103.734V186.532H0.112335V84.4369Z" fill="white"/>
<path d="M180.955 182.942C175.863 184.288 169.648 185.634 162.309 186.981C155.12 188.327 147.258 189 138.721 189C130.034 189 122.921 187.803 117.379 185.41C111.838 183.016 107.42 179.651 104.125 175.313C100.98 170.825 98.8082 165.589 97.6101 159.606C96.412 153.622 95.8129 147.04 95.8129 139.86V81.0711H123.445V136.27C123.445 145.993 124.568 153.248 126.814 158.035C129.211 162.672 133.779 164.991 140.518 164.991C144.712 164.991 148.905 164.617 153.098 163.869V81.0711H180.955V182.942Z" fill="white"/>
</svg>
