<svg width="282" height="182" viewBox="0 0 282 182" fill="none" xmlns="http://www.w3.org/2000/svg">
<rect width="282" height="182" fill="white"/>
<path d="M120.111 72.876L79.6067 72.876L79.6067 61.92L120.111 61.92L120.111 72.876ZM68.7337 75.283C67.627 75.283 66.5757 75.0617 65.5797 74.619C64.639 74.2317 63.809 73.6783 63.0897 72.959C62.4257 72.2397 61.9 71.382 61.5127 70.386C61.07 69.4453 60.8487 68.4493 60.8487 67.398C60.8487 66.2913 61.07 65.2677 61.5127 64.327C61.9 63.3863 62.4257 62.5563 63.0897 61.837C63.809 61.1177 64.639 60.5367 65.5797 60.094C66.5757 59.7067 67.627 59.513 68.7337 59.513C69.8404 59.513 70.864 59.7067 71.8047 60.094C72.8007 60.5367 73.6307 61.1177 74.2947 61.837C75.014 62.5563 75.5674 63.3863 75.9547 64.327C76.3974 65.2677 76.6187 66.2913 76.6187 67.398C76.6187 68.4493 76.3974 69.4453 75.9547 70.386C75.5674 71.382 75.014 72.2397 74.2947 72.959C73.6307 73.6783 72.8007 74.2317 71.8047 74.619C70.864 75.0617 69.8404 75.283 68.7337 75.283Z" fill="#FD0000"/>
<path d="M98.9 72.876L139.404 72.876L139.404 61.92L98.9 61.92L98.9 72.876ZM150.277 75.283C151.384 75.283 152.435 75.0617 153.431 74.619C154.372 74.2317 155.202 73.6783 155.921 72.959C156.585 72.2397 157.111 71.382 157.498 70.386C157.941 69.4453 158.162 68.4493 158.162 67.398C158.162 66.2913 157.941 65.2677 157.498 64.327C157.111 63.3863 156.585 62.5563 155.921 61.837C155.202 61.1177 154.372 60.5367 153.431 60.094C152.435 59.7067 151.384 59.513 150.277 59.513C149.17 59.513 148.147 59.7067 147.206 60.094C146.21 60.5367 145.38 61.1177 144.716 61.837C143.997 62.5563 143.443 63.3863 143.056 64.327C142.613 65.2677 142.392 66.2913 142.392 67.398C142.392 68.4493 142.613 69.4453 143.056 70.386C143.443 71.382 143.997 72.2397 144.716 72.959C145.38 73.6783 146.21 74.2317 147.206 74.619C148.147 75.0617 149.17 75.283 150.277 75.283Z" fill="#FD0000"/>
<rect x="24" y="43" width="56" height="42" fill="white"/>
<path d="M80.048 79.32C82.16 78.744 84.752 78.2 87.824 77.688C90.96 77.176 94.352 76.92 98 76.92C101.584 76.92 104.56 77.432 106.928 78.456C109.296 79.416 111.152 80.824 112.496 82.68C113.904 84.472 114.896 86.648 115.472 89.208C116.048 91.704 116.336 94.488 116.336 97.56V123H104.528V99.096C104.528 94.872 104.048 91.832 103.088 89.976C102.128 88.12 100.176 87.192 97.232 87.192C96.336 87.192 95.44 87.224 94.544 87.288C93.712 87.352 92.816 87.448 91.856 87.576V123H80.048V79.32ZM157.328 121.464C155.152 122.04 152.496 122.616 149.36 123.192C146.288 123.768 142.928 124.056 139.28 124.056C135.568 124.056 132.528 123.544 130.16 122.52C127.792 121.496 125.904 120.056 124.496 118.2C123.152 116.28 122.224 114.04 121.712 111.48C121.2 108.92 120.944 106.104 120.944 103.032V77.88H132.752V101.496C132.752 105.656 133.232 108.76 134.192 110.808C135.216 112.792 137.168 113.784 140.048 113.784C141.84 113.784 143.632 113.624 145.424 113.304V77.88H157.328V121.464Z" fill="#FD0000"/>
<path d="M174.336 107.872C174.336 110.112 174.624 111.744 175.2 112.768C175.776 113.792 176.704 114.304 177.984 114.304C178.752 114.304 179.488 114.24 180.192 114.112C180.96 113.984 181.888 113.696 182.976 113.248L184.32 123.04C183.296 123.552 181.728 124.064 179.616 124.576C177.504 125.088 175.328 125.344 173.088 125.344C169.44 125.344 166.656 124.512 164.736 122.848C162.816 121.12 161.856 118.304 161.856 114.4V56.8H174.336V107.872ZM199.675 107.872C199.675 110.112 199.963 111.744 200.539 112.768C201.115 113.792 202.043 114.304 203.323 114.304C204.091 114.304 204.827 114.24 205.531 114.112C206.299 113.984 207.227 113.696 208.315 113.248L209.659 123.04C208.635 123.552 207.067 124.064 204.955 124.576C202.843 125.088 200.667 125.344 198.427 125.344C194.779 125.344 191.995 124.512 190.075 122.848C188.155 121.12 187.195 118.304 187.195 114.4V56.8H199.675V107.872Z" fill="#FD0000"/>
<rect x="158" y="19" width="56" height="42" fill="white"/>
</svg>
