<svg width="720" height="720" viewBox="0 0 720 720" fill="none" xmlns="http://www.w3.org/2000/svg">
<rect width="720" height="720" fill="white"/>
<path d="M168 288.207L345.843 287.959V255.198L168 255.446V288.207ZM378.394 295.156C381.707 295.156 384.855 294.494 387.836 293.171C390.653 292.013 393.137 290.358 395.291 288.207C397.279 286.056 398.853 283.491 400.012 280.513C401.337 277.7 402 274.722 402 271.578C402 268.269 401.337 265.208 400.012 262.395C398.853 259.582 397.279 257.1 395.291 254.949C393.137 252.798 390.653 251.061 387.836 249.737C384.855 248.579 381.707 248 378.394 248C375.081 248 372.016 248.579 369.2 249.737C366.218 251.061 363.733 252.798 361.746 254.949C359.592 257.1 357.936 259.582 356.776 262.395C355.451 265.208 354.788 268.269 354.788 271.578C354.788 274.722 355.451 277.7 356.776 280.513C357.936 283.491 359.592 286.056 361.746 288.207C363.733 290.358 366.218 292.013 369.2 293.171C372.016 294.494 375.081 295.156 378.394 295.156Z" fill="black"/>
<path d="M168.144 307.228C174.467 305.506 182.226 303.879 191.423 302.348C200.812 300.817 210.967 300.051 221.888 300.051C232.618 300.051 241.527 301.582 248.617 304.644C255.706 307.515 261.262 311.725 265.286 317.275C269.501 322.634 272.471 329.141 274.195 336.796C275.92 344.259 276.782 352.584 276.782 361.77V437.842H241.432V366.363C241.432 353.732 239.995 344.642 237.12 339.092C234.246 333.542 228.403 330.767 219.589 330.767C216.906 330.767 214.224 330.863 211.542 331.054C209.051 331.246 206.368 331.533 203.494 331.916V437.842H168.144V307.228Z" fill="black"/>
<path d="M399.503 433.249C392.989 434.972 385.037 436.694 375.649 438.416C366.452 440.139 356.393 441 345.471 441C334.359 441 325.257 439.469 318.168 436.407C311.079 433.345 305.427 429.039 301.211 423.489C297.188 417.748 294.41 411.05 292.877 403.395C291.344 395.74 290.577 387.319 290.577 378.133V302.922H325.928V373.54C325.928 385.979 327.365 395.261 330.239 401.385C333.305 407.318 339.149 410.284 347.771 410.284C353.136 410.284 358.5 409.806 363.865 408.849V302.922H399.503V433.249Z" fill="black"/>
<path d="M453.841 389.75C453.841 396.321 454.685 401.108 456.371 404.111C458.058 407.115 460.776 408.617 464.525 408.617C466.774 408.617 468.929 408.429 470.991 408.054C473.24 407.678 475.958 406.834 479.144 405.519L483.08 434.242C480.081 435.744 475.489 437.245 469.304 438.747C463.119 440.249 456.746 441 450.186 441C439.503 441 431.35 438.56 425.727 433.679C420.104 428.61 417.293 420.35 417.293 408.899V255.196H453.841V389.75Z" fill="black"/>
<path d="M528.047 389.75C528.047 396.321 528.891 401.108 530.578 404.111C532.265 407.115 534.982 408.617 538.731 408.617C540.98 408.617 543.135 408.429 545.197 408.054C547.446 407.678 550.164 406.834 553.35 405.519L557.286 434.242C554.287 435.744 549.695 437.245 543.51 438.747C537.325 440.249 530.953 441 524.393 441C513.709 441 505.556 438.56 499.933 433.679C494.31 428.61 491.499 420.35 491.499 408.899V255.196H528.047V389.75Z" fill="black"/>
</svg>
